<svg width="47" height="38" viewBox="0 0 47 38" fill="none" xmlns="http://www.w3.org/2000/svg">
<g filter="url(#filter0_d_518_640)">
<path d="M9.92905 28.7868L12.9268 27.9836L13.7276 30.972L9.92905 28.7868Z" fill="#82D5BC"/>
<path d="M9.92905 28.7868L12.9268 27.9836L13.7276 30.972L9.92905 28.7868Z" fill="#82D5BC"/>
<rect x="8.79541" y="12.5786" width="28.5621" height="19.0414" transform="rotate(-15 8.79541 12.5786)" fill="#82D5BC"/>
<rect x="5" y="10.3926" width="28.5621" height="19.0414" transform="rotate(-15 5 10.3926)" fill="#D2F7FC"/>
<rect x="27.2656" y="7.48535" width="1.14248" height="13.329" rx="0.571242" transform="rotate(-15 27.2656 7.48535)" fill="#D9D9D9"/>
<rect x="21.8092" y="9.08105" width="1.14248" height="13.329" rx="0.571242" transform="rotate(-15 21.8092 9.08105)" fill="#D9D9D9"/>
<rect x="16.2301" y="10.4419" width="1.14248" height="13.329" rx="0.571242" transform="rotate(-15 16.2301 10.4419)" fill="#D9D9D9"/>
<rect x="10.7124" y="11.9204" width="1.14248" height="13.329" rx="0.571242" transform="rotate(-15 10.7124 11.9204)" fill="#D9D9D9"/>
<rect x="8.79541" y="12.5786" width="28.5621" height="19.0414" transform="rotate(-15 8.79541 12.5786)" fill="#82D5BC"/>
<path d="M36.2166 20.6812L41.1754 23.4861" stroke="#D2F7FC" stroke-width="0.2" stroke-linecap="round"/>
<rect x="5" y="10.3926" width="28.5621" height="19.0414" transform="rotate(-15 5 10.3926)" fill="#D2F7FC"/>
<rect x="27.2656" y="7.48535" width="1.14248" height="13.329" rx="0.571242" transform="rotate(-15 27.2656 7.48535)" fill="#D9D9D9"/>
<rect x="21.8092" y="9.08105" width="1.14248" height="13.329" rx="0.571242" transform="rotate(-15 21.8092 9.08105)" fill="#D9D9D9"/>
<rect x="16.2301" y="10.4419" width="1.14248" height="13.329" rx="0.571242" transform="rotate(-15 16.2301 10.4419)" fill="#D9D9D9"/>
<rect x="10.7124" y="11.9204" width="1.14248" height="13.329" rx="0.571242" transform="rotate(-15 10.7124 11.9204)" fill="#D9D9D9"/>
</g>
<defs>
<filter id="filter0_d_518_640" x="0" y="0" width="46.3125" height="37.9722" filterUnits="userSpaceOnUse" color-interpolation-filters="sRGB">
<feFlood flood-opacity="0" result="BackgroundImageFix"/>
<feColorMatrix in="SourceAlpha" type="matrix" values="0 0 0 0 0 0 0 0 0 0 0 0 0 0 0 0 0 0 127 0" result="hardAlpha"/>
<feOffset dy="2"/>
<feGaussianBlur stdDeviation="2.5"/>
<feComposite in2="hardAlpha" operator="out"/>
<feColorMatrix type="matrix" values="0 0 0 0 0 0 0 0 0 0 0 0 0 0 0 0 0 0 0.15 0"/>
<feBlend mode="normal" in2="BackgroundImageFix" result="effect1_dropShadow_518_640"/>
<feBlend mode="normal" in="SourceGraphic" in2="effect1_dropShadow_518_640" result="shape"/>
</filter>
</defs>
</svg>
