<svg width="100" height="45" viewBox="0 0 100 45" fill="none" xmlns="http://www.w3.org/2000/svg">
<path d="M12.5195 22.998C12.5195 23.6426 12.4349 24.2643 12.2656 24.8633C12.1029 25.4557 11.8685 26.0124 11.5625 26.5332C11.2565 27.0475 10.8919 27.5195 10.4688 27.9492C10.0456 28.3724 9.57357 28.737 9.05273 29.043C8.5319 29.349 7.97201 29.5866 7.37305 29.7559C6.7806 29.9186 6.16211 30 5.51758 30H1.29883V15.9961H5.51758C6.16211 15.9961 6.7806 16.0807 7.37305 16.25C7.97201 16.4128 8.5319 16.6471 9.05273 16.9531C9.57357 17.2591 10.0456 17.627 10.4688 18.0566C10.8919 18.4798 11.2565 18.9518 11.5625 19.4727C11.8685 19.987 12.1029 20.5436 12.2656 21.1426C12.4349 21.735 12.5195 22.3535 12.5195 22.998ZM9.7168 22.998C9.7168 22.4186 9.60612 21.875 9.38477 21.3672C9.16992 20.8594 8.87044 20.4167 8.48633 20.0391C8.10872 19.6549 7.66276 19.3522 7.14844 19.1309C6.64062 18.9095 6.09701 18.7988 5.51758 18.7988H4.12109V27.1973H5.51758C6.09701 27.1973 6.64062 27.0898 7.14844 26.875C7.66276 26.6536 8.10872 26.3542 8.48633 25.9766C8.87044 25.5924 9.16992 25.1465 9.38477 24.6387C9.60612 24.1243 9.7168 23.5775 9.7168 22.998Z" fill="#45CC93"/>
<path d="M63.5195 22.998C63.5195 23.6426 63.4349 24.2643 63.2656 24.8633C63.1029 25.4557 62.8685 26.0124 62.5625 26.5332C62.2565 27.0475 61.8919 27.5195 61.4688 27.9492C61.0456 28.3724 60.5736 28.737 60.0527 29.043C59.5319 29.349 58.972 29.5866 58.373 29.7559C57.7806 29.9186 57.1621 30 56.5176 30H52.2988V15.9961H56.5176C57.1621 15.9961 57.7806 16.0807 58.373 16.25C58.972 16.4128 59.5319 16.6471 60.0527 16.9531C60.5736 17.2591 61.0456 17.627 61.4688 18.0566C61.8919 18.4798 62.2565 18.9518 62.5625 19.4727C62.8685 19.987 63.1029 20.5436 63.2656 21.1426C63.4349 21.735 63.5195 22.3535 63.5195 22.998ZM60.7168 22.998C60.7168 22.4186 60.6061 21.875 60.3848 21.3672C60.1699 20.8594 59.8704 20.4167 59.4863 20.0391C59.1087 19.6549 58.6628 19.3522 58.1484 19.1309C57.6406 18.9095 57.097 18.7988 56.5176 18.7988H55.1211V27.1973H56.5176C57.097 27.1973 57.6406 27.0898 58.1484 26.875C58.6628 26.6536 59.1087 26.3542 59.4863 25.9766C59.8704 25.5924 60.1699 25.1465 60.3848 24.6387C60.6061 24.1243 60.7168 23.5775 60.7168 22.998Z" fill="#45CC93"/>
<path d="M73.8984 30H64.2988V15.9961H73.8984V18.7988H67.1016V21.6016H71.7012V24.4043H67.1016V27.1973H73.8984V30Z" fill="#45CC93"/>
<path d="M24.3438 24.4043C24.3438 25.179 24.1973 25.9082 23.9043 26.5918C23.6113 27.2689 23.2109 27.8613 22.7031 28.3691C22.1953 28.8704 21.5996 29.2676 20.916 29.5605C20.2389 29.8535 19.513 30 18.7383 30C17.9635 30 17.2344 29.8535 16.5508 29.5605C15.8737 29.2676 15.2812 28.8704 14.7734 28.3691C14.2721 27.8613 13.875 27.2689 13.582 26.5918C13.2891 25.9082 13.1426 25.179 13.1426 24.4043V15.9961H15.9355V24.4043C15.9355 24.7884 16.0072 25.1497 16.1504 25.4883C16.3001 25.8268 16.502 26.123 16.7559 26.377C17.0098 26.6309 17.306 26.8327 17.6445 26.9824C17.9896 27.1257 18.3542 27.1973 18.7383 27.1973C19.1224 27.1973 19.4837 27.1257 19.8223 26.9824C20.1673 26.8327 20.4668 26.6309 20.7207 26.377C20.9746 26.123 21.1732 25.8268 21.3164 25.4883C21.4661 25.1497 21.541 24.7884 21.541 24.4043V15.9961H24.3438V24.4043Z" fill="#45CC93"/>
<path d="M38.6562 21.5957C38.6562 20.821 38.8027 20.0918 39.0957 19.4082C39.3887 18.7311 39.7891 18.1387 40.2969 17.6309C40.8047 17.1296 41.4004 16.7324 42.084 16.4395C42.7611 16.1465 43.487 16 44.2617 16C45.0365 16 45.7656 16.1465 46.4492 16.4395C47.1263 16.7324 47.7187 17.1296 48.2266 17.6309C48.7279 18.1387 49.125 18.7311 49.418 19.4082C49.7109 20.0918 49.8574 20.821 49.8574 21.5957L49.8574 30.0039L47.0645 30.0039L47.0645 21.5957C47.0645 21.2116 46.9928 20.8503 46.8496 20.5117C46.6999 20.1732 46.498 19.877 46.2441 19.623C45.9902 19.3691 45.694 19.1673 45.3555 19.0176C45.0104 18.8743 44.6458 18.8027 44.2617 18.8027C43.8776 18.8027 43.5163 18.8743 43.1777 19.0176C42.8327 19.1673 42.5332 19.3691 42.2793 19.623C42.0254 19.877 41.8268 20.1732 41.6836 20.5117C41.5339 20.8503 41.459 21.2116 41.459 21.5957L41.459 30.0039L38.6562 30.0039L38.6562 21.5957Z" fill="#45CC93"/>
<path d="M74.8652 21.6904C74.8652 20.9157 75.0117 20.1865 75.3047 19.5029C75.5977 18.8258 75.998 18.2334 76.5059 17.7256C77.0137 17.2243 77.6094 16.8271 78.293 16.5342C78.9701 16.2412 79.696 16.0947 80.4707 16.0947C81.2454 16.0947 81.9746 16.2412 82.6582 16.5342C83.3353 16.8271 83.9277 17.2243 84.4355 17.7256C84.9368 18.2334 85.334 18.8258 85.627 19.5029C85.9199 20.1865 86.0664 20.9157 86.0664 21.6904L86.0664 30.0986L83.2734 30.0986L83.2734 21.6904C83.2734 21.3063 83.2018 20.945 83.0586 20.6064C82.9089 20.2679 82.707 19.9717 82.4531 19.7178C82.1992 19.4639 81.903 19.262 81.5645 19.1123C81.2194 18.9691 80.8548 18.8975 80.4707 18.8975C80.0866 18.8975 79.7253 18.9691 79.3867 19.1123C79.0417 19.262 78.7422 19.4639 78.4883 19.7178C78.2344 19.9717 78.0358 20.2679 77.8926 20.6064C77.7428 20.945 77.668 21.3063 77.668 21.6904L77.668 30.0986L74.8652 30.0986L74.8652 21.6904Z" fill="#45CC93"/>
<path d="M83.7749 21.6904C83.7749 20.9157 83.9214 20.1865 84.2144 19.5029C84.5073 18.8258 84.9077 18.2334 85.4155 17.7256C85.9233 17.2243 86.519 16.8271 87.2026 16.5342C87.8797 16.2412 88.6056 16.0947 89.3804 16.0947C90.1551 16.0947 90.8843 16.2412 91.5679 16.5342C92.245 16.8271 92.8374 17.2243 93.3452 17.7256C93.8465 18.2334 94.2437 18.8258 94.5366 19.5029C94.8296 20.1865 94.9761 20.9157 94.9761 21.6904L94.9761 30.0986L92.1831 30.0986L92.1831 21.6904C92.1831 21.3063 92.1115 20.945 91.9683 20.6064C91.8185 20.2679 91.6167 19.9717 91.3628 19.7178C91.1089 19.4639 90.8127 19.262 90.4741 19.1123C90.1291 18.9691 89.7645 18.8975 89.3804 18.8975C88.9963 18.8975 88.6349 18.9691 88.2964 19.1123C87.9513 19.262 87.6519 19.4639 87.3979 19.7178C87.144 19.9717 86.9455 20.2679 86.8022 20.6064C86.6525 20.945 86.5776 21.3063 86.5776 21.6904L86.5776 30.0986L83.7749 30.0986L83.7749 21.6904Z" fill="#45CC93"/>
<path d="M95.8984 16L98.7012 16L98.7012 30.0039L95.8984 30.0039L95.8984 16Z" fill="#45CC93"/>
<path d="M37.4805 28.5645C36.8294 29.1243 36.1003 29.554 35.293 29.8535C34.4857 30.153 33.6491 30.3027 32.7832 30.3027C32.1191 30.3027 31.4779 30.2148 30.8594 30.0391C30.2474 29.8698 29.6712 29.6289 29.1309 29.3164C28.597 28.9974 28.1087 28.6165 27.666 28.1738C27.2233 27.7311 26.8424 27.2428 26.5234 26.709C26.2109 26.1686 25.9668 25.5924 25.791 24.9805C25.6217 24.362 25.5371 23.7207 25.5371 23.0566C25.5371 22.3926 25.6217 21.7513 25.791 21.1328C25.9668 20.5143 26.2109 19.9382 26.5234 19.4043C26.8424 18.8639 27.2233 18.3724 27.666 17.9297C28.1087 17.487 28.597 17.1094 29.1309 16.7969C29.6712 16.4779 30.2474 16.2337 30.8594 16.0645C31.4779 15.8887 32.1191 15.8008 32.7832 15.8008C33.6491 15.8008 34.4857 15.9505 35.293 16.25C36.1003 16.543 36.8294 16.9727 37.4805 17.5391L35.9961 19.9805C35.5859 19.5378 35.1009 19.1992 34.541 18.9648C33.9811 18.724 33.3952 18.6035 32.7832 18.6035C32.1647 18.6035 31.5853 18.7207 31.0449 18.9551C30.5046 19.1895 30.0326 19.5085 29.6289 19.9121C29.2253 20.3092 28.9062 20.7812 28.6719 21.3281C28.4375 21.8685 28.3203 22.4447 28.3203 23.0566C28.3203 23.6686 28.4375 24.2448 28.6719 24.7852C28.9062 25.319 29.2253 25.7878 29.6289 26.1914C30.0326 26.5951 30.5046 26.9141 31.0449 27.1484C31.5853 27.3828 32.1647 27.5 32.7832 27.5C33.3952 27.5 33.9811 27.3828 34.541 27.1484C35.1009 26.9076 35.5859 26.5658 35.9961 26.123L37.4805 28.5645Z" fill="#45CC93"/>
</svg>
